# xmcd CD database file
#
# Track frame offsets:
#	150
#	9815
#	19058
#	30651
#	42843
#	51921
#	62271
#	72246
#	82491
#	92149
#	101359
#	110666
#	121196
#	132896
#	143858
#	159098
#	171476
#	181634
#	193202
#	204112
#
# Disc length: 2857 seconds
#
# Revision: 1
# Processed by: cddbd v1.5.2PL0 Copyright (c) Steve Scherf et al.
# Submitted via: jetAudio 7
#
DISCID=050b2714
DTITLE=Chet Atkins - The Very Best Of Chet Atkins-Country Gentleman Dis
DTITLE=c 2
DYEAR=1900
DGENRE=Acoustic
TTITLE0=Mountain Melodies
TTITLE1=Sweet Bunch Of Daisies
TTITLE2=Hangover Blues
TTITLE3=Meet Mr. Callaghan
TTITLE4=Chinatown My Chinatown
TTITLE5=High Rockin' Swing
TTITLE6=The Bells Of St. Mary's
TTITLE7=Country Gentleman
TTITLE8=Beautiful Ohio
TTITLE9=Kentucky Derby
TTITLE10=Pagan Love Song
TTITLE11=Downhill Drag
TTITLE12=Alabama Jubilee
TTITLE13=Red Wing
TTITLE14=Indiana
TTITLE15=South
TTITLE16=Silver Bells
TTITLE17=Frankie And Johnny
TTITLE18=The Old Spinning Wheel
TTITLE19=Mister Sandman
EXTD=
EXTT0=
EXTT1=
EXTT2=
EXTT3=
EXTT4=
EXTT5=
EXTT6=
EXTT7=
EXTT8=
EXTT9=
EXTT10=
EXTT11=
EXTT12=
EXTT13=
EXTT14=
EXTT15=
EXTT16=
EXTT17=
EXTT18=
EXTT19=
PLAYORDER=
